<svg xmlns="http://www.w3.org/2000/svg" width="534.91" height="68.074" viewBox="0 0 534.91 68.074">
  <g id="Group_234_1_" transform="translate(0 333.472)">
    <path id="Path_861_1_" d="M35.3-329.9a18.4,18.4,0,0,1,7.82,7.29,20.285,20.285,0,0,1,2.52,9.96,19.8,19.8,0,0,1-2.76,10.34,19.528,19.528,0,0,1-8.19,7.38,29.436,29.436,0,0,1-13.05,2.86c-2.74-.05-4.58-.79-5.53-2.19a7.153,7.153,0,0,1-1.43-4v-.29h6.67a20.717,20.717,0,0,0,9.67-2.01,12.968,12.968,0,0,0,7.48-11.9,13.226,13.226,0,0,0-3.91-9.67q-3.9-3.96-12.86-3.95H6.96v60.02H0v-66.6H22.29A27.734,27.734,0,0,1,35.3-329.9Z"/>
    <path id="Path_862_1_" d="M98.04-266.07H56.02v-66.6H97.75v6.48H62.97v23.05H90.5a6.3,6.3,0,0,1-1.86,4.57,6.044,6.044,0,0,1-4.52,1.9H62.97v24.1H98.04Z"/>
    <path id="Path_863_1_" d="M151.56-267.89a16.719,16.719,0,0,1-5.9-5.05l-14.39-19.72-1.71-2.29a2.58,2.58,0,0,1-.57-1.62,2.8,2.8,0,0,1,.8-2,2.691,2.691,0,0,1,2.05-.86h1.05q8.385,0,12.63-4a12.8,12.8,0,0,0,4.24-9.63,12.281,12.281,0,0,0-3.95-9.34q-3.96-3.72-12.81-3.71H117.38v60.02h-6.96v-66.6h23.06a29.08,29.08,0,0,1,13.06,2.62,17.883,17.883,0,0,1,7.76,7,19.137,19.137,0,0,1,2.52,9.72,17.4,17.4,0,0,1-5.14,13.16,22.035,22.035,0,0,1-13.06,5.91l20.58,28.2A16.346,16.346,0,0,1,151.56-267.89Z"/>
    <path id="Path_864_1_" d="M208.92-290.99a16.823,16.823,0,0,1,1.33,6.05,18.318,18.318,0,0,1-2.91,10.33,18.943,18.943,0,0,1-7.96,6.82,26.473,26.473,0,0,1-11.33,2.38,24.571,24.571,0,0,1-19.77-9.77,18.23,18.23,0,0,1-3.67-9.09,6.817,6.817,0,0,1,2-.29,7.219,7.219,0,0,1,3.81,1.1,8.03,8.03,0,0,1,2.86,2.9,17.037,17.037,0,0,0,6.29,6.24,16.529,16.529,0,0,0,8.48,2.34,17.875,17.875,0,0,0,10.62-3.14,10.337,10.337,0,0,0,4.44-8.96,9.585,9.585,0,0,0-3.62-8.04,19.915,19.915,0,0,0-8.29-3.79l-8.85-1.8a26.65,26.65,0,0,1-5.87-1.96,19.325,19.325,0,0,1-5.37-3.67,15.056,15.056,0,0,1-4.66-11.53,16.68,16.68,0,0,1,2.91-9.72,19.653,19.653,0,0,1,7.76-6.53,23.764,23.764,0,0,1,10.38-2.34,25.209,25.209,0,0,1,11.47,2.38,18.9,18.9,0,0,1,7.25,6.05,20.07,20.07,0,0,1,3.29,7.58l-.49.09a11,11,0,0,1-1.8.19,7.636,7.636,0,0,1-3.53-.83,6.909,6.909,0,0,1-2.67-2.33,15.7,15.7,0,0,0-13.52-6.76c-.57,0-1.49.07-2.76.19a12.868,12.868,0,0,0-8.01,3.81,10.914,10.914,0,0,0-3.34,8,9.82,9.82,0,0,0,2.43,6.62,12.4,12.4,0,0,0,7.29,3.76l8.48,1.62a36.118,36.118,0,0,1,7.19,2.1,19.9,19.9,0,0,1,5.78,3.71A18.029,18.029,0,0,1,208.92-290.99Z"/>
    <path id="Path_865_1_" d="M261.26-329.9a18.4,18.4,0,0,1,7.82,7.29,20.285,20.285,0,0,1,2.52,9.96,19.8,19.8,0,0,1-2.76,10.34,19.528,19.528,0,0,1-8.19,7.38,29.406,29.406,0,0,1-13.05,2.86c-2.74-.05-4.58-.79-5.53-2.19a7.153,7.153,0,0,1-1.43-4v-.29h6.67a20.717,20.717,0,0,0,9.67-2.01,12.968,12.968,0,0,0,7.48-11.9,13.186,13.186,0,0,0-3.91-9.67q-3.9-3.96-12.86-3.95H232.92v60.02h-6.96v-66.6h22.29A27.734,27.734,0,0,1,261.26-329.9Z"/>
    <path id="Path_866_1_" d="M323.9-266.07H281.89v-66.6h41.73v6.48H288.85v23.05h27.53a6.361,6.361,0,0,1-1.86,4.57,6.1,6.1,0,0,1-4.53,1.9H288.84v24.1h35.05v6.5Z"/>
    <path id="Path_867_1_" d="M389.16-277.51a29.656,29.656,0,0,1-10.01,8.58,31.333,31.333,0,0,1-15.34,3.52,33.369,33.369,0,0,1-16.71-4.29,31.683,31.683,0,0,1-12-11.96,34.192,34.192,0,0,1-4.44-17.48,34.81,34.81,0,0,1,4.52-17.72,32.653,32.653,0,0,1,12.24-12.2,33.529,33.529,0,0,1,16.77-4.39,30.814,30.814,0,0,1,14.77,3.39,29.717,29.717,0,0,1,10.01,8.39,28.257,28.257,0,0,1,4.94,10.14l-.19.1a7.01,7.01,0,0,1-2.48.48,6.727,6.727,0,0,1-3.62-1.05,7.962,7.962,0,0,1-2.76-2.86,25.508,25.508,0,0,0-7.95-8.42,22.28,22.28,0,0,0-12.9-3.48,25.269,25.269,0,0,0-13,3.48,25.558,25.558,0,0,0-9.48,9.66A27.8,27.8,0,0,0,338-299.61a29.168,29.168,0,0,0,3.38,14.09,25.093,25.093,0,0,0,9.34,9.86,25.466,25.466,0,0,0,13.38,3.58q10.485,0,15.82-5.57a32.063,32.063,0,0,0,7.52-12.24l6.76,2.48A33.2,33.2,0,0,1,389.16-277.51Z"/>
    <path id="Path_868_1_" d="M439.16-330.76a6.353,6.353,0,0,1,1.9,4.67H418.87v60.02h-7.05v-60.02H396.1a6.322,6.322,0,0,1-4.68-1.96,6.374,6.374,0,0,1-1.9-4.62h44.96A6.391,6.391,0,0,1,439.16-330.76Z"/>
    <path id="Path_869_1_" d="M510.61-265.98l-8.48-17.05H476.88l.39-.86a12.7,12.7,0,0,1,3.05-3.71,8.332,8.332,0,0,1,5.43-1.8h13.14l-13.82-27.92-25.43,51.35h-7.62l33.15-66.59,33.06,66.59Z"/>
    <path id="Path_870_1_" d="M527.95-332.67h6.96v66.6h-6.96Z"/>
    <path id="Path_874_1_" d="M35.3-329.9a18.4,18.4,0,0,1,7.82,7.29,20.285,20.285,0,0,1,2.52,9.96,19.8,19.8,0,0,1-2.76,10.34,19.528,19.528,0,0,1-8.19,7.38,29.436,29.436,0,0,1-13.05,2.86c-2.74-.05-4.58-.79-5.53-2.19a7.153,7.153,0,0,1-1.43-4v-.29h6.67a20.717,20.717,0,0,0,9.67-2.01,12.968,12.968,0,0,0,7.48-11.9,13.226,13.226,0,0,0-3.91-9.67q-3.9-3.96-12.86-3.95H6.96v60.02H0v-66.6H22.29A27.734,27.734,0,0,1,35.3-329.9Z"/>
    <path id="Path_875_1_" d="M98.04-266.07H56.02v-66.6H97.75v6.48H62.97v23.05H90.5a6.3,6.3,0,0,1-1.86,4.57,6.044,6.044,0,0,1-4.52,1.9H62.97v24.1H98.04Z"/>
    <path id="Path_876_1_" d="M151.56-267.89a16.719,16.719,0,0,1-5.9-5.05l-14.39-19.72-1.71-2.29a2.58,2.58,0,0,1-.57-1.62,2.8,2.8,0,0,1,.8-2,2.691,2.691,0,0,1,2.05-.86h1.05q8.385,0,12.63-4a12.8,12.8,0,0,0,4.24-9.63,12.281,12.281,0,0,0-3.95-9.34q-3.96-3.72-12.81-3.71H117.38v60.02h-6.96v-66.6h23.06a29.08,29.08,0,0,1,13.06,2.62,17.883,17.883,0,0,1,7.76,7,19.137,19.137,0,0,1,2.52,9.72,17.4,17.4,0,0,1-5.14,13.16,22.035,22.035,0,0,1-13.06,5.91l20.58,28.2A16.346,16.346,0,0,1,151.56-267.89Z"/>
    <path id="Path_877_1_" d="M208.92-290.99a16.823,16.823,0,0,1,1.33,6.05,18.318,18.318,0,0,1-2.91,10.33,18.943,18.943,0,0,1-7.96,6.82,26.473,26.473,0,0,1-11.33,2.38,24.571,24.571,0,0,1-19.77-9.77,18.23,18.23,0,0,1-3.67-9.09,6.817,6.817,0,0,1,2-.29,7.219,7.219,0,0,1,3.81,1.1,8.03,8.03,0,0,1,2.86,2.9,17.037,17.037,0,0,0,6.29,6.24,16.529,16.529,0,0,0,8.48,2.34,17.875,17.875,0,0,0,10.62-3.14,10.337,10.337,0,0,0,4.44-8.96,9.585,9.585,0,0,0-3.62-8.04,19.915,19.915,0,0,0-8.29-3.79l-8.85-1.8a26.65,26.65,0,0,1-5.87-1.96,19.325,19.325,0,0,1-5.37-3.67,15.056,15.056,0,0,1-4.66-11.53,16.68,16.68,0,0,1,2.91-9.72,19.653,19.653,0,0,1,7.76-6.53,23.764,23.764,0,0,1,10.38-2.34,25.209,25.209,0,0,1,11.47,2.38,18.9,18.9,0,0,1,7.25,6.05,20.07,20.07,0,0,1,3.29,7.58l-.49.09a11,11,0,0,1-1.8.19,7.636,7.636,0,0,1-3.53-.83,6.909,6.909,0,0,1-2.67-2.33,15.7,15.7,0,0,0-13.52-6.76c-.57,0-1.49.07-2.76.19a12.868,12.868,0,0,0-8.01,3.81,10.914,10.914,0,0,0-3.34,8,9.82,9.82,0,0,0,2.43,6.62,12.4,12.4,0,0,0,7.29,3.76l8.48,1.62a36.118,36.118,0,0,1,7.19,2.1,19.9,19.9,0,0,1,5.78,3.71A18.029,18.029,0,0,1,208.92-290.99Z"/>
    <path id="Path_878_1_" d="M261.26-329.9a18.4,18.4,0,0,1,7.82,7.29,20.285,20.285,0,0,1,2.52,9.96,19.8,19.8,0,0,1-2.76,10.34,19.528,19.528,0,0,1-8.19,7.38,29.406,29.406,0,0,1-13.05,2.86c-2.74-.05-4.58-.79-5.53-2.19a7.153,7.153,0,0,1-1.43-4v-.29h6.67a20.717,20.717,0,0,0,9.67-2.01,12.968,12.968,0,0,0,7.48-11.9,13.186,13.186,0,0,0-3.91-9.67q-3.9-3.96-12.86-3.95H232.92v60.02h-6.96v-66.6h22.29A27.734,27.734,0,0,1,261.26-329.9Z"/>
    <path id="Path_879_1_" d="M323.9-266.07H281.89v-66.6h41.73v6.48H288.85v23.05h27.53a6.361,6.361,0,0,1-1.86,4.57,6.1,6.1,0,0,1-4.53,1.9H288.84v24.1h35.05v6.5Z"/>
    <path id="Path_880_1_" d="M389.16-277.51a29.656,29.656,0,0,1-10.01,8.58,31.333,31.333,0,0,1-15.34,3.52,33.369,33.369,0,0,1-16.71-4.29,31.683,31.683,0,0,1-12-11.96,34.192,34.192,0,0,1-4.44-17.48,34.81,34.81,0,0,1,4.52-17.72,32.653,32.653,0,0,1,12.24-12.2,33.529,33.529,0,0,1,16.77-4.39,30.814,30.814,0,0,1,14.77,3.39,29.717,29.717,0,0,1,10.01,8.39,28.257,28.257,0,0,1,4.94,10.14l-.19.1a7.01,7.01,0,0,1-2.48.48,6.727,6.727,0,0,1-3.62-1.05,7.962,7.962,0,0,1-2.76-2.86,25.508,25.508,0,0,0-7.95-8.42,22.28,22.28,0,0,0-12.9-3.48,25.269,25.269,0,0,0-13,3.48,25.558,25.558,0,0,0-9.48,9.66A27.8,27.8,0,0,0,338-299.61a29.168,29.168,0,0,0,3.38,14.09,25.093,25.093,0,0,0,9.34,9.86,25.466,25.466,0,0,0,13.38,3.58q10.485,0,15.82-5.57a32.063,32.063,0,0,0,7.52-12.24l6.76,2.48A33.2,33.2,0,0,1,389.16-277.51Z"/>
    <path id="Path_881_1_" d="M439.16-330.76a6.353,6.353,0,0,1,1.9,4.67H418.87v60.02h-7.05v-60.02H396.1a6.322,6.322,0,0,1-4.68-1.96,6.374,6.374,0,0,1-1.9-4.62h44.96A6.391,6.391,0,0,1,439.16-330.76Z"/>
    <path id="Path_882_1_" d="M510.61-265.98l-8.48-17.05H476.88l.39-.86a12.7,12.7,0,0,1,3.05-3.71,8.332,8.332,0,0,1,5.43-1.8h13.14l-13.82-27.92-25.43,51.35h-7.62l33.15-66.59,33.06,66.59Z"/>
    <path id="Path_883_1_" d="M527.95-332.67h6.96v66.6h-6.96Z"/>
  </g>
</svg>
